<svg width="120" height="40" viewBox="0 0 120 40" fill="none" xmlns="http://www.w3.org/2000/svg">
<path d="M4.5455 26.6303C3.42619 26.6303 2.5321 26.4151 1.86325 25.9847C1.19439 25.5542 0.716633 24.9422 0.42998 24.1485C0.143327 23.3414 0 22.3998 0 21.3236V15.1291C0 14.053 0.143327 13.1316 0.42998 12.3648C0.730283 11.5846 1.20804 10.9927 1.86325 10.5892C2.5321 10.1722 3.42619 9.96368 4.5455 9.96368C5.66481 9.96368 6.55207 10.1722 7.20728 10.5892C7.86249 11.0062 8.33342 11.5981 8.62007 12.3648C8.92037 13.1316 9.07052 14.053 9.07052 15.1291V21.3438C9.07052 22.4065 8.92037 23.3347 8.62007 24.1283C8.33342 24.922 7.86249 25.5408 7.20728 25.9847C6.55207 26.4151 5.66481 26.6303 4.5455 26.6303ZM4.5455 24.8345C5.15976 24.8345 5.62386 24.7135 5.93782 24.4713C6.25177 24.2158 6.46335 23.866 6.57255 23.4221C6.68175 22.9648 6.73635 22.4334 6.73635 21.8281V14.6651C6.73635 14.0597 6.68175 13.5418 6.57255 13.1114C6.46335 12.6675 6.25177 12.3312 5.93782 12.1025C5.62386 11.8604 5.15976 11.7393 4.5455 11.7393C3.93124 11.7393 3.46031 11.8604 3.13271 12.1025C2.81876 12.3312 2.60718 12.6675 2.49798 13.1114C2.38878 13.5418 2.33418 14.0597 2.33418 14.6651V21.8281C2.33418 22.4334 2.38878 22.9648 2.49798 23.4221C2.60718 23.866 2.81876 24.2158 3.13271 24.4713C3.46031 24.7135 3.93124 24.8345 4.5455 24.8345Z" fill="white"/>
<path d="M11.3446 26.4488V10.1049H14.682C15.7877 10.1049 16.7022 10.2529 17.4257 10.5488C18.1492 10.8313 18.6815 11.2954 19.0228 11.9411C19.3777 12.5733 19.5551 13.4073 19.5551 14.4431C19.5551 15.0753 19.4869 15.6538 19.3504 16.1784C19.2139 16.6895 18.9955 17.1267 18.6952 17.4899C18.3949 17.8397 17.999 18.0952 17.5076 18.2567L19.8622 26.4488H17.6304L15.4601 18.7813H13.6583V26.4488H11.3446ZM13.6583 17.1469H14.5387C15.1939 17.1469 15.7263 17.0662 16.1358 16.9048C16.5453 16.7433 16.8456 16.4676 17.0367 16.0775C17.2278 15.6874 17.3233 15.1426 17.3233 14.4431C17.3233 13.488 17.1459 12.802 16.791 12.385C16.4361 11.9545 15.7331 11.7393 14.682 11.7393H13.6583V17.1469Z" fill="white"/>
<path d="M22.0849 26.4488V10.1049H24.3577V26.4488H22.0849Z" fill="white"/>
<path d="M30.9926 26.6505C29.9552 26.6505 29.1225 26.4353 28.4946 26.0048C27.8804 25.5609 27.4299 24.922 27.1433 24.088C26.8703 23.254 26.7338 22.2518 26.7338 21.0815V15.6134C26.7338 14.4162 26.8566 13.4006 27.1023 12.5666C27.3617 11.7191 27.8121 11.0734 28.4537 10.6295C29.1089 10.1856 30.0166 9.96368 31.1769 9.96368C32.2143 9.96368 33.047 10.1386 33.6749 10.4883C34.3164 10.8246 34.7805 11.3492 35.0672 12.0621C35.3538 12.7616 35.4972 13.6494 35.4972 14.7256V15.3309H33.3268V14.8265C33.3268 14.1135 33.279 13.5351 33.1835 13.0912C33.0879 12.6338 32.89 12.2976 32.5897 12.0823C32.303 11.8536 31.8457 11.7393 31.2178 11.7393C30.5353 11.7393 30.0371 11.894 29.7231 12.2034C29.4228 12.5128 29.2317 12.9365 29.1498 13.4746C29.0816 13.9992 29.0475 14.5978 29.0475 15.2704V21.3236C29.0475 22.1038 29.1021 22.7563 29.2113 23.2809C29.3341 23.8055 29.5593 24.1956 29.8869 24.4512C30.2146 24.7068 30.6787 24.8345 31.2793 24.8345C31.8799 24.8345 32.344 24.6933 32.6716 24.4108C32.9992 24.1283 33.2244 23.7113 33.3473 23.1598C33.4701 22.6083 33.5315 21.9222 33.5315 21.1017V19.9718H31.4226V18.3575H35.62V26.4488H34.1663L33.941 24.5722C33.7226 25.1776 33.3814 25.6753 32.9173 26.0654C32.4532 26.4555 31.8116 26.6505 30.9926 26.6505Z" fill="white"/>
<path d="M38.1212 26.4488V10.1049H40.3939V26.4488H38.1212Z" fill="white"/>
<path d="M43.0771 26.4488V10.1049H44.6537L49.363 20.9605V10.1049H51.2877V26.4488H49.8135L45.0428 15.2906V26.4488H43.0771Z" fill="white"/>
<path d="M52.9937 26.4488L56.5155 10.1049H58.7473L62.2895 26.4488H60.0986L59.341 22.3325H55.9626L55.1641 26.4488H52.9937ZM56.2698 20.6981H59.0339L57.6416 13.3333L56.2698 20.6981Z" fill="white"/>
<path d="M63.9723 26.4488V10.1049H66.286V24.8144H70.5243V26.4488H63.9723Z" fill="white"/>
<path d="M76.7893 26.4488V10.1049H80.9048C81.9013 10.1049 82.693 10.2865 83.2799 10.6497C83.8805 10.9995 84.3173 11.5106 84.5903 12.1832C84.8633 12.8558 84.9998 13.6696 84.9998 14.6247C84.9998 15.4856 84.8429 16.2322 84.5289 16.8644C84.2286 17.4966 83.7782 17.9876 83.1776 18.3374C82.5769 18.6737 81.8262 18.8418 80.9253 18.8418H79.103V26.4488H76.7893ZM79.103 17.2074H80.1677C80.8366 17.2074 81.3621 17.1334 81.7443 16.9855C82.1265 16.8375 82.3995 16.5819 82.5633 16.2187C82.7271 15.8421 82.809 15.3175 82.809 14.6449C82.809 13.8647 82.7476 13.2661 82.6247 12.8491C82.5155 12.4321 82.2766 12.1429 81.9081 11.9814C81.5395 11.82 80.9662 11.7393 80.1882 11.7393H79.103V17.2074Z" fill="white"/>
<path d="M86.627 26.4488V10.1049H89.9644C91.0701 10.1049 91.9847 10.2529 92.7081 10.5488C93.4316 10.8313 93.9639 11.2954 94.3052 11.9411C94.6601 12.5733 94.8376 13.4073 94.8376 14.4431C94.8376 15.0753 94.7693 15.6538 94.6328 16.1784C94.4963 16.6895 94.2779 17.1267 93.9776 17.4899C93.6773 17.8397 93.2814 18.0952 92.79 18.2567L95.1447 26.4488H92.9129L90.7425 18.7813H88.9407V26.4488H86.627ZM88.9407 17.1469H89.8211C90.4763 17.1469 91.0087 17.0662 91.4182 16.9048C91.8277 16.7433 92.128 16.4676 92.3191 16.0775C92.5102 15.6874 92.6058 15.1426 92.6058 14.4431C92.6058 13.488 92.4283 12.802 92.0734 12.385C91.7185 11.9545 91.0155 11.7393 89.9644 11.7393H88.9407V17.1469Z" fill="white"/>
<path d="M97.3674 26.4488V10.1049H99.6401V26.4488H97.3674Z" fill="white"/>
<path d="M102.323 26.4488V10.1049H103.9L108.609 20.9605V10.1049H110.534V26.4488H109.06L104.289 15.2906V26.4488H102.323Z" fill="white"/>
<path d="M114.963 26.4488V11.7998H112.158V10.1049H120V11.7998H117.277V26.4488H114.963Z" fill="white"/>
<path d="M48.1168 40C45.4304 40 43.2846 39.4835 41.6794 38.4504C40.0741 37.4173 38.9275 35.9483 38.2395 34.0436C37.5516 32.1065 37.2076 29.8467 37.2076 27.2639V12.3971C37.2076 9.81437 37.5516 7.60291 38.2395 5.76271C38.9603 3.89023 40.1069 2.46973 41.6794 1.50121C43.2846 0.500404 45.4304 0 48.1168 0C50.8031 0 52.9325 0.500404 54.505 1.50121C56.0775 2.50202 57.2078 3.92252 57.8957 5.76271C58.6165 7.60291 58.9768 9.81437 58.9768 12.3971V27.3123C58.9768 29.8628 58.6165 32.0904 57.8957 33.9952C57.2078 35.8999 56.0775 37.385 54.505 38.4504C52.9325 39.4835 50.8031 40 48.1168 40ZM48.1168 35.6901C49.591 35.6901 50.7048 35.3995 51.4583 34.8184C52.2118 34.205 52.7196 33.3656 52.9817 32.3002C53.2438 31.2026 53.3748 29.9274 53.3748 28.4746V11.2833C53.3748 9.83051 53.2438 8.58757 52.9817 7.55448C52.7196 6.48911 52.2118 5.682 51.4583 5.13317C50.7048 4.55206 49.591 4.2615 48.1168 4.2615C46.6426 4.2615 45.5123 4.55206 44.7261 5.13317C43.9726 5.682 43.4648 6.48911 43.2027 7.55448C42.9406 8.58757 42.8096 9.83051 42.8096 11.2833V28.4746C42.8096 29.9274 42.9406 31.2026 43.2027 32.3002C43.4648 33.3656 43.9726 34.205 44.7261 34.8184C45.5123 35.3995 46.6426 35.6901 48.1168 35.6901Z" fill="white" fill-opacity="0.6"/>
<path d="M64.4345 39.5642V0.338982H74.3117C76.7033 0.338982 78.6034 0.774817 80.0121 1.64649C81.4535 2.48588 82.5018 3.71267 83.1571 5.32688C83.8123 6.94108 84.1399 8.89427 84.1399 11.1864C84.1399 13.2526 83.7631 15.0444 83.0096 16.5617C82.2889 18.0791 81.2078 19.2575 79.7664 20.0969C78.3249 20.904 76.5231 21.3075 74.3609 21.3075H69.9874V39.5642H64.4345ZM69.9874 17.385H72.5427C74.148 17.385 75.4092 17.2074 76.3265 16.8523C77.2438 16.4972 77.899 15.8838 78.2921 15.0121C78.6853 14.1082 78.8818 12.8491 78.8818 11.2349C78.8818 9.36239 78.7344 7.92575 78.4396 6.92494C78.1775 5.92413 77.6042 5.23002 76.7196 4.84262C75.8351 4.45521 74.4592 4.2615 72.5918 4.2615H69.9874V17.385Z" fill="white" fill-opacity="0.6"/>
</svg>
